<?xml version="1.0" encoding="utf-8"?>

<!DOCTYPE svg PUBLIC "-//W3C//DTD SVG 1.1//EN" "http://www.w3.org/Graphics/SVG/1.1/DTD/svg11.dtd">
<!-- Uploaded to: SVG Repo, www.svgrepo.com, Generator: SVG Repo Mixer Tools -->
<svg height="800px" width="800px" version="1.1" id="_x32_" xmlns="http://www.w3.org/2000/svg" xmlns:xlink="http://www.w3.org/1999/xlink" 
	 viewBox="0 0 512 512"  xml:space="preserve">
<style type="text/css">
	.st0{fill:#000000;}
</style>
<g>
	<path class="st0" d="M102.783,354.362c-19.705,0-35.683,16.888-35.683,37.732c0,20.836,15.978,37.732,35.683,37.732
		c19.696,0,35.664-16.896,35.664-37.732C138.447,371.249,122.479,354.362,102.783,354.362z"/>
	<path class="st0" d="M501.401,325.542H197.456c-5.855,0-10.598-5.017-10.598-11.2v-167.32c0-6.192-4.744-11.208-10.599-11.208
		H79.712c-3.145,0-6.121,1.474-8.134,4.028L2.456,227.573C0.866,229.578,0,232.122,0,234.736v76.956v40.241
		c0,6.183,4.752,11.199,10.59,11.199h53.277c8.629-12.93,22.832-21.418,38.916-21.418c16.066,0,30.277,8.488,38.906,21.418h217.418
		c8.629-12.93,22.827-21.418,38.92-21.418c16.075,0,30.278,8.488,38.898,21.418h64.476c5.864,0,10.599-5.016,10.599-11.199v-15.175
		C512,330.568,507.265,325.542,501.401,325.542z M38.694,243.648v-7.754c0-2.65,0.875-5.22,2.446-7.278l44.136-57.482
		c2.076-2.702,5.185-4.265,8.47-4.265h43.235c6.042,0,10.935,5.166,10.935,11.543v65.236c0,6.377-4.893,11.544-10.935,11.544H49.62
		C43.579,255.192,38.694,250.025,38.694,243.648z"/>
	<path class="st0" d="M398.027,354.362c-19.714,0-35.687,16.888-35.687,37.732c0,20.836,15.973,37.732,35.687,37.732
		c19.696,0,35.665-16.896,35.665-37.732C433.692,371.249,417.722,354.362,398.027,354.362z"/>
	<path class="st0" d="M331.991,173.387h-12.127c-0.406,0-0.6,0.22-0.6,0.644v16.772c0,0.434,0.194,0.654,0.6,0.654h12.127
		c5.653,0,9.301-3.542,9.301-8.991C341.292,176.901,337.644,173.387,331.991,173.387z"/>
	<path class="st0" d="M499.299,82.174H214.521c-7.022,0-12.701,6.014-12.701,13.452v200.681c0,7.419,5.679,13.434,12.701,13.434
		h284.778c7.013,0,12.701-6.015,12.701-13.434V95.626C512,88.189,506.312,82.174,499.299,82.174z M263.55,173.387
		c-0.407,0-0.601,0.22-0.601,0.644v15.28c0,0.424,0.194,0.645,0.601,0.645h19.405c4.337,0,6.871,2.782,6.871,6.73
		c0,3.957-2.534,6.739-6.871,6.739H263.55c-0.407,0-0.601,0.212-0.601,0.628v20.738c0,5.044-3.135,8.338-7.384,8.338
		c-4.337,0-7.472-3.294-7.472-8.338v-58.02c0-4.187,2.42-6.96,6.465-6.96H287.9c4.151,0,6.881,2.897,6.881,6.845
		c0,3.842-2.73,6.731-6.881,6.731H263.55z M344.825,202.029l10.006,19.237c0.698,1.396,1.008,2.897,1.008,4.39
		c0,4.063-2.624,7.472-7.075,7.472c-3.029,0-5.555-1.492-7.278-4.91l-11.517-23.406h-10.104c-0.406,0-0.6,0.212-0.6,0.627v19.352
		c0,5.044-3.047,8.338-7.375,8.338c-4.355,0-7.482-3.294-7.482-8.338v-58.02c0-4.187,2.42-6.96,6.466-6.96h21.825
		c14.149,0,23.441,9.291,23.441,22.548C356.14,191.237,351.9,198.294,344.825,202.029z M407.301,173.387h-24.36
		c-0.406,0-0.601,0.22-0.601,0.644v14.432c0,0.433,0.195,0.637,0.601,0.637h19.502c4.151,0,6.783,2.782,6.783,6.73
		c0,3.975-2.632,6.748-6.783,6.748h-19.502c-0.406,0-0.601,0.204-0.601,0.627v15.068c0,0.433,0.195,0.654,0.601,0.654h24.36
		c4.133,0,6.872,2.87,6.872,6.731c0,3.957-2.739,6.845-6.872,6.845H373.95c-4.032,0-6.461-2.782-6.461-6.952v-58.779
		c0-4.187,2.429-6.96,6.461-6.96h33.351c4.133,0,6.872,2.897,6.872,6.845C414.173,170.498,411.434,173.387,407.301,173.387z
		 M464.411,173.387h-24.343c-0.406,0-0.618,0.22-0.618,0.644v14.432c0,0.433,0.212,0.637,0.618,0.637h19.502
		c4.133,0,6.765,2.782,6.765,6.73c0,3.975-2.632,6.748-6.765,6.748h-19.502c-0.406,0-0.618,0.204-0.618,0.627v15.068
		c0,0.433,0.212,0.654,0.618,0.654h24.343c4.15,0,6.871,2.87,6.871,6.731c0,3.957-2.721,6.845-6.871,6.845h-33.334
		c-4.063,0-6.483-2.782-6.483-6.952v-58.779c0-4.187,2.42-6.96,6.483-6.96h33.334c4.15,0,6.871,2.897,6.871,6.845
		C471.282,170.498,468.562,173.387,464.411,173.387z"/>
</g>
</svg>